<svg xmlns="http://www.w3.org/2000/svg" xmlns:xlink="http://www.w3.org/1999/xlink" width="217.805" height="369.87" viewBox="0 0 217.805 369.87">
  <defs>
    <filter id="side" x="0" y="0" width="217.805" height="369.87" filterUnits="userSpaceOnUse">
      <feOffset dy="8" input="SourceAlpha"/>
      <feGaussianBlur stdDeviation="11" result="blur"/>
      <feFlood flood-opacity="0.161"/>
      <feComposite operator="in" in2="blur"/>
      <feComposite in="SourceGraphic"/>
    </filter>
  </defs>
  <g transform="matrix(1, 0, 0, 1, 0, 0)" filter="url(#side)">
    <path id="side-2" data-name="side" d="M136.4,303.43a152.446,152.446,0,0,1-15.086-2.3c-4.894-1-9.794-2.262-14.561-3.744-4.713-1.466-9.41-3.185-13.959-5.109-4.507-1.906-8.976-4.059-13.281-6.4-4.275-2.322-8.49-4.883-12.527-7.61a152.79,152.79,0,0,1-41.039-41.039c-2.727-4.036-5.288-8.251-7.61-12.526-2.339-4.307-4.491-8.775-6.4-13.282-1.924-4.549-3.643-9.246-5.109-13.959-1.483-4.766-2.742-9.666-3.744-14.56a152.216,152.216,0,0,1-2.3-15.086,154.138,154.138,0,0,1,0-31.069,152.135,152.135,0,0,1,2.3-15.086c1-4.9,2.261-9.794,3.744-14.561,1.466-4.713,3.185-9.41,5.109-13.959,1.906-4.507,4.058-8.976,6.4-13.281,2.323-4.275,4.883-8.49,7.61-12.527A152.791,152.791,0,0,1,66.987,26.291c4.036-2.727,8.251-5.288,12.527-7.61,4.306-2.338,8.774-4.491,13.281-6.4,4.549-1.924,9.246-3.643,13.959-5.109,4.767-1.483,9.666-2.742,14.561-3.744a152.175,152.175,0,0,1,15.086-2.3c5.082-.516,10.264-.78,15.4-.785V36.262a115.825,115.825,0,0,0,0,231.649v36.3C146.666,304.209,141.483,303.945,136.4,303.43Z" transform="translate(33 24.66)" fill="#c2185b"/>
  </g>
</svg>
