<svg xmlns="http://www.w3.org/2000/svg" xmlns:xlink="http://www.w3.org/1999/xlink" width="547.8" height="1030.431" viewBox="0 0 547.8 1030.431">
  <defs>
    <filter id="Intersection_3" x="0" y="0" width="547.8" height="1030.431" filterUnits="userSpaceOnUse">
      <feOffset dy="8" input="SourceAlpha"/>
      <feGaussianBlur stdDeviation="11" result="blur"/>
      <feFlood flood-opacity="0.161"/>
      <feComposite operator="in" in2="blur"/>
      <feComposite in="SourceGraphic"/>
    </filter>
  </defs>
  <g transform="matrix(1, 0, 0, 1, 0, 0)" filter="url(#Intersection_3)">
    <path id="Intersection_3-2" data-name="Intersection 3" d="M432.913,961.942a483.323,483.323,0,0,1-47.88-7.308c-15.535-3.179-31.083-7.177-46.212-11.882-14.961-4.653-29.867-10.109-44.3-16.216-14.3-6.05-28.487-12.882-42.152-20.306-13.569-7.371-26.946-15.5-39.759-24.153-12.751-8.615-25.241-17.955-37.122-27.76-11.853-9.781-23.374-20.253-34.244-31.123S119.9,800.8,110.115,788.949c-9.806-11.881-19.146-24.371-27.76-37.122C73.7,739.013,65.572,725.637,58.2,712.068,50.777,698.4,43.945,684.221,37.9,669.916c-6.107-14.438-11.562-29.344-16.216-44.3-4.705-15.13-8.7-30.677-11.882-46.213a483.454,483.454,0,0,1-7.308-47.879,489.488,489.488,0,0,1,0-98.608A483.454,483.454,0,0,1,9.8,385.033c3.179-15.536,7.177-31.083,11.882-46.213,4.654-14.96,10.109-29.866,16.216-44.3,6.05-14.3,12.882-28.486,20.306-42.152,7.371-13.569,15.5-26.946,24.154-39.758,8.614-12.751,17.954-25.241,27.76-37.122,9.781-11.853,20.253-23.374,31.123-34.244s22.392-21.342,34.244-31.123c11.882-9.806,24.372-19.146,37.122-27.76,12.813-8.656,26.19-16.783,39.759-24.154,13.666-7.424,27.848-14.256,42.152-20.307,14.438-6.107,29.344-11.562,44.3-16.215,15.129-4.705,30.677-8.7,46.212-11.882a483.328,483.328,0,0,1,47.88-7.308C449.042.852,465.487.014,481.8,0V155.608c-179.9.232-326.192,146.658-326.192,326.608S301.9,808.591,481.8,808.823V964.431C465.487,964.417,449.042,963.579,432.913,961.942Z" transform="translate(33 25)" fill="#c2185b"/>
  </g>
</svg>
