<svg xmlns="http://www.w3.org/2000/svg" xmlns:xlink="http://www.w3.org/1999/xlink" width="93.683" height="93.683" viewBox="0 0 93.683 93.683">
  <defs>
    <linearGradient id="linear-gradient" x1="0.5" x2="0.192" y2="1" gradientUnits="objectBoundingBox">
      <stop offset="0" stop-color="#c0392b"/>
      <stop offset="1" stop-color="#d800bb"/>
    </linearGradient>
    <filter id="link-circle" x="0" y="0" width="93.683" height="93.683" filterUnits="userSpaceOnUse">
      <feOffset dy="8" input="SourceAlpha"/>
      <feGaussianBlur stdDeviation="11" result="blur"/>
      <feFlood flood-opacity="0.161"/>
      <feComposite operator="in" in2="blur"/>
      <feComposite in="SourceGraphic"/>
    </filter>
  </defs>
  <g transform="matrix(1, 0, 0, 1, 0, 0)" filter="url(#link-circle)">
    <path id="link-circle-2" data-name="link-circle" d="M35.683,21.841A13.841,13.841,0,1,1,21.841,8,13.839,13.839,0,0,1,35.683,21.841ZM22.79,28.2l4.686-4.686,2.877-2.877a1.334,1.334,0,0,0,0-1.892l-.949-.949a1.334,1.334,0,0,0-1.892,0l-5.67,5.67-5.67-5.67a1.334,1.334,0,0,0-1.892,0l-.949.949a1.334,1.334,0,0,0,0,1.892L20.893,28.2A1.341,1.341,0,0,0,22.79,28.2Z" transform="translate(25 60.68) rotate(-90)" fill="url(#linear-gradient)"/>
  </g>
</svg>
