<svg xmlns="http://www.w3.org/2000/svg" xmlns:xlink="http://www.w3.org/1999/xlink" width="94.81" height="94.81" viewBox="0 0 94.81 94.81">
  <defs>
    <linearGradient id="linear-gradient" x1="0.5" x2="0.192" y2="1" gradientUnits="objectBoundingBox">
      <stop offset="0" stop-color="#c0392b"/>
      <stop offset="1" stop-color="#d800bb"/>
    </linearGradient>
    <filter id="chevron-circle-down-solid" x="0" y="0" width="94.81" height="94.81" filterUnits="userSpaceOnUse">
      <feOffset dy="8" input="SourceAlpha"/>
      <feGaussianBlur stdDeviation="11" result="blur"/>
      <feFlood flood-opacity="0.161"/>
      <feComposite operator="in" in2="blur"/>
      <feComposite in="SourceGraphic"/>
    </filter>
  </defs>
  <g transform="matrix(1, 0, 0, 1, 0, 0)" filter="url(#chevron-circle-down-solid)">
    <path id="chevron-circle-down-solid-2" data-name="chevron-circle-down-solid" d="M36.81,22.4A14.4,14.4,0,1,1,22.4,8,14.4,14.4,0,0,1,36.81,22.4ZM23.392,29.021l4.877-4.877,2.994-2.994a1.388,1.388,0,0,0,0-1.969l-.987-.987a1.388,1.388,0,0,0-1.969,0l-5.9,5.9-5.9-5.9a1.388,1.388,0,0,0-1.969,0l-.987.987a1.388,1.388,0,0,0,0,1.969l7.87,7.87A1.4,1.4,0,0,0,23.392,29.021Z" transform="translate(25 17)" fill="url(#linear-gradient)"/>
  </g>
</svg>
