<svg xmlns="http://www.w3.org/2000/svg" xmlns:xlink="http://www.w3.org/1999/xlink" width="782" height="1499.238" viewBox="0 0 782 1499.238">
  <defs>
    <filter id="Intersection_1" x="0" y="0" width="782" height="1499.238" filterUnits="userSpaceOnUse">
      <feOffset dy="8" input="SourceAlpha"/>
      <feGaussianBlur stdDeviation="11" result="blur"/>
      <feFlood flood-opacity="0.161"/>
      <feComposite operator="in" in2="blur"/>
      <feComposite in="SourceGraphic"/>
    </filter>
  </defs>
  <g transform="matrix(1, 0, 0, 1, 0, 0)" filter="url(#Intersection_1)">
    <path id="Intersection_1-2" data-name="Intersection 1" d="M227.349,2671.538a718.237,718.237,0,0,1-71.154-10.859c-23.086-4.725-46.193-10.666-68.677-17.658-22.232-6.916-44.384-15.023-65.84-24.1-21.258-8.992-42.334-19.145-62.641-30.177-20.165-10.954-40.044-23.031-59.086-35.9-18.949-12.8-37.511-26.682-55.168-41.254-17.614-14.536-34.736-30.1-50.889-46.252s-31.716-33.276-46.252-50.889c-14.572-17.657-28.452-36.219-41.254-55.167-12.864-19.042-24.941-38.922-35.9-59.086-11.032-20.308-21.184-41.385-30.176-62.643-9.075-21.455-17.183-43.607-24.1-65.84-6.993-22.484-12.934-45.59-17.658-68.677A718.691,718.691,0,0,1-412.3,2031.89a727.419,727.419,0,0,1,0-146.541,718.636,718.636,0,0,1,10.859-71.153c4.725-23.087,10.665-46.193,17.658-68.677,6.915-22.233,15.023-44.385,24.1-65.84,8.992-21.258,19.144-42.334,30.176-62.643,10.955-20.165,23.032-40.044,35.9-59.086,12.8-18.949,26.681-37.51,41.254-55.167,14.536-17.614,30.1-34.736,46.252-50.891s33.276-31.716,50.889-46.252c17.658-14.572,36.219-28.452,55.168-41.254,19.041-12.864,38.92-24.941,59.086-35.9,20.307-11.032,41.383-21.184,62.641-30.176,21.456-9.075,43.608-17.183,65.84-24.1,22.484-6.993,45.591-12.935,68.677-17.658a718.529,718.529,0,0,1,71.154-10.86c23.97-2.435,48.409-3.678,72.651-3.7v231.247c-267.343.345-484.753,217.949-484.753,485.371S32.657,2443.645,300,2443.99v231.248C275.758,2675.217,251.319,2673.972,227.349,2671.538Z" transform="translate(449 -1217)" fill="#c2185b"/>
  </g>
</svg>
